<svg version="1.1" id="Layer_1" xmlns="http://www.w3.org/2000/svg" x="0" y="0" viewBox="0 0 907.1 272.1" style="enable-background:new 0 0 907.1 272.1" xml:space="preserve"><style>.st0{fill:#ec2326}.st1{fill:#fff}</style><path class="st0" d="M667.1 82.8c13.8 0 25-11.2 25-25 0-14-11-25-25-25-14.3 0-25 10.7-25 25 0 14.2 10.7 25 25 25z"/><path class="st0" d="M880.1 176.4c-.7-.8-1.6-1.4-2.5-1.8 1.6-1.3 2.7-3.3 2.7-5.5v-28.6c0-17-4.9-31.2-14.2-41-9.4-9.9-23-15.2-39.3-15.2-16.1 0-29.6 5.3-38.8 15.2-6 6.4-10.1 14.6-12.2 24.3V94.5c0-3.9-3.1-7-7-7h-14.2c.3-3 .9-4.4 1.5-5 1.1-1.3 4.3-1.6 6.7-1.6h8.2c3.9 0 7-3.1 7-7V44.3c0-3.9-3.1-7-7-7h-8.2c-33.5 0-53.2 18.2-54.7 50.2h-10.8c-3.4 0-6.2 2.4-6.8 5.5-.7-3.2-3.5-5.5-6.8-5.5h-32.9c-3.9 0-7 3.1-7 7v92.1c-1.1-2.5-3.5-4.2-6.4-4.2h-42.9V53.7c0-3.9-3.1-7-7-7h-34.1c-3.9 0-7 3.1-7 7v168c0 3.9 3.1 7 7 7h84c3.2 0 5.9-2.1 6.7-5 .8 2.9 3.5 5 6.7 5h32.9c3.9 0 7-3.1 7-7v-95.1c.9 2.8 3.5 4.9 6.7 4.9h10.8v90.2c0 3.9 3.1 7 7 7h32.4c3.9 0 7-3.1 7-7v-90.2H769c2.8 0 5.1-1.6 6.3-3.9-.7 4.1-1 8.5-1 13v33.8c0 35.3 20.2 57.2 52.6 57.2 31.7 0 52.4-18.6 55.4-49.8-.2-2-.9-3.9-2.2-5.4zm-59.4-36.6c.1-11.2 3.6-11.2 6.2-11.2 3.1 0 6.9 0 6.9 11.2h-13.1zm14.3 39.6c-.8 3.2-1.6 5.1-2.4 5.8-1 .9-3.6 1.1-5.7 1.1-2.3 0-5.8 0-6.2-10.2h16.2c-.9.9-1.6 2-1.9 3.3z"/><path class="st1" d="M553.1 53.7v168h84v-32.4h-49.9V53.7h-34.1zm97.4 40.8h32.9v127.2h-32.9V94.5zm16.6-54.7c-10.6 0-18 7.7-18 18 0 10.1 7.4 18 18 18 10.1 0 18-8.4 18-18 0-10.4-7.9-18-18-18zm80.1 181.9v-97.2h21.4v-30h-21.4v-3.1c0-12.5 3.8-17.5 15.4-17.5h8.2V44.3h-8.2c-34.8 0-47.8 20.6-47.8 47v3.1H697v30h17.8v97.2l32.4.1zm127.7-40.6h-33.1c-2.2 8.6-5 12.2-14.9 12.2-8.6 0-13.2-5.8-13.2-19V169h59.5v-28.6c0-31-17.3-49.2-46.6-49.2-28.8 0-45.8 18.2-45.8 49.2v33.8c0 31.4 17 50.2 45.6 50.2 28.4.2 45.9-15.9 48.5-43.3zm-61.2-41c0-13 4.6-18.5 13.2-18.5 9.1 0 13.9 5.5 13.9 18.5v6.7h-27.1v-6.7z"/><g><path class="st1" d="M284.3 46.7h-48.7c-3.9 0-7 3.1-7 7v168c0 3.9 3.1 7 7 7h34.1c3.9 0 7-3.1 7-7v-47h7.6c19 0 34.8-5.9 45.8-17.1 10.9-11.2 16.7-27.3 16.7-46.7 0-19.5-5.8-35.7-16.7-46.9-10.9-11.4-26.8-17.3-45.8-17.3zm13.4 64.1c0 15.4-7 17.5-13.9 17.5h-7.2V93.1h7.2c6.9 0 13.9 2.1 13.9 17.7zm186.8-26.4c-26.1 0-44.1 12.7-51.1 34.8v-25c0-2.5-1.3-4.8-3.5-6.1-4.4-2.5-10.3-3.8-17.4-3.8-10.9 0-20.3 2.9-27.8 8.5-.8-3.1-3.6-5.3-6.8-5.3h-21.6c-3.9 0-7 3.1-7 7v127.2c0 3.9 3.1 7 7 7H389c3.9 0 7-3.1 7-7v-79.9c0-6.3 1.8-12.7 15.1-12.7 4.6 0 8.4.8 12.4 2.7 1 .5 2 .7 3 .7 1.3 0 2.6-.4 3.7-1.1.3-.2.5-.4.7-.5-.5 3.5-.7 7.1-.7 11v32.4c0 17.7 5 32.3 14.4 42.3 9.5 10.1 23.3 15.4 39.9 15.4s30.4-5.3 39.9-15.4c9.4-10 14.4-24.6 14.4-42.3v-32.4c0-36.1-20.3-57.5-54.3-57.5zm6.9 89.8c0 12-4 12-6.9 12s-6.9 0-6.9-12v-32.4c0-11.7 3.8-11.7 6.9-11.7s6.9 0 6.9 11.7v32.4z"/><path class="st0" d="M484.5 91.4c-29.8 0-47.3 18-47.3 50.4v32.4c0 32.4 17.5 50.6 47.3 50.6s47.3-18.2 47.3-50.6v-32.4c0-32.4-17.6-50.4-47.3-50.4zm13.9 82.8c0 13.2-4.8 19-13.9 19s-13.9-5.8-13.9-19v-32.4c0-13.2 4.8-18.7 13.9-18.7s13.9 5.5 13.9 18.7v32.4zm-118.1-66.3-2.4-13.4h-21.6v127.2H389v-79.9c0-13.4 8.4-19.7 22.1-19.7 6 0 10.8 1.2 15.4 3.4V94.2c-3.4-1.9-8.2-2.9-13.9-2.9-14.5.1-25.6 5.8-32.3 16.6zm-96-54.2h-48.7v168h34.1v-54h14.6c34.8 0 55.4-21.1 55.4-56.9.1-36-20.6-57.1-55.4-57.1zm-.5 81.6h-14.2V86.1h14.2c13.7 0 20.9 8.4 20.9 24.7 0 16.1-7.2 24.5-20.9 24.5z"/></g><g><path class="st0" d="M112.8 141.3c-.5-6.6.6-13.6 1.7-19.8.8-4.9 1.6-9.5 1.5-13.6-.2-8.8-4.4-16.6-10.9-20.3 4.1-4.7 4.7-13 4.8-14.8.3-6.6-2.5-13.4-5.2-17-3-3.9-8.7-8.4-15.3-8.4h-.1c-6.9 0-12.4 3.4-14.4 8.7-.4-.3-.9-.5-1.3-.7-1.7-.8-3.8-1.3-5.8-1.3-2.1 0-4.2.5-5.9 1.5-1.4.8-2.9 2-4.1 3.4-1.6-.6-3.4-.9-5.3-.9-1 0-2.1.1-3.2.3-3.8.7-6.9 3.5-8.5 6-1 1.6-1.6 3.5-1.9 5.4-3.3 0-6.3 1.2-8.2 3.2-2.7 2.9-3.9 6.4-3.9 9.7-.6.2-1.2.5-1.8.8-5.2 3.1-5.6 10.2-5.6 12.3 0 5.3 2.5 10.6 6.4 13.6 1.9 1.5 4.4 2.4 7.2 2.6-2 4-1.4 8-1 11.3l.3 2.1c.5 4.7 5.1 19.9 13.5 29.1 5.6 6.2 14.2 15.5 17.4 22.9l.8 1.7c4.1 9.2 8.2 18.6 16.7 26.4 6.8 6.3 14.4 9.6 21.8 9.6 4.2 0 8.3-1 12.2-3.1 9.9-5.1 15.5-13.7 15.4-23.7-.1-7.6-4.1-15.1-8.3-23.1-4.1-7.7-8.4-15.8-9-23.9z"/><path class="st0" d="M197.9 104.5c1.1-.5 2.2-1.2 3.3-2.1 1.4-1.1 5.7-4.6 5.7-11.6 0-6.2-4.4-12.6-8.5-14.7-1.1-.6-2.3-.9-3.5-1-1-3.6-3.4-6.5-6.8-8.1-1.6-.8-3.4-1.2-5.3-1.2-1.5 0-3 .3-4.5.7-.2-.4-.4-.7-.6-1.1-2.5-4.2-6.6-6.5-11.5-6.5-3.4 0-6.3 1.3-8.6 3.1-2.2-1.4-4.9-2-7.4-2-.7 0-1.3.1-2 .2-3.7.6-6.1 2.4-7.8 4.4-2.4-3.1-6.4-4.8-11.2-4.8-1.7 0-3.5.2-5.1.7-6.7 1.8-9.5 6.6-11.1 10.6-2.2 5.2-1.7 10.2-1.4 13.5.7 6.8 4 15.5 11.2 19-.5.4-.9.9-1.3 1.4-6.3 7.6-2.7 21.1-1.9 23.7 1.2 3.8 3.2 6.9 5.2 9.9 1.6 2.5 3.2 4.8 4.1 7.4.3.9.6 1.7 1 2.6 2.5 6.8 5.6 15.2 5.5 21.9-.1 2.8-.6 6.5-1.3 10.4-1.3 8-2.7 17.1-.8 24.9 2.3 9.5 11.2 19.1 25.6 19.1 13.5 0 19.6-7.9 22.5-11.8 7.7-10 8.5-19.7 9.2-28.2.2-2.5.4-4.8.7-7.1 1.2-7.7 3.5-14 6.1-20.6 3-7.9 6.1-16.1 6.9-26.7.7-8.9-.7-16.2-4.3-22.8-.3-1.3-1.2-2.3-2.1-3.2z"/><path class="st1" d="M28.1 88.7c1.9-1.1 4.2-.5 6.1.8s5.2 5 6 6.7c1.3 2.7 1.6 6.8-.7 8.5s-7.5 1.8-10-.1-4.1-5.6-4.1-8.8c.1-2.7.9-6 2.7-7.1zm7-11.5c1.9-2 6.7-1.5 8.4 0s4.9 6.3 6.1 8.2c2.2 3.4 2.1 6.7 0 8.8-2.1 2.1-4.5 2.9-7.3 1.7-1.8-.8-8.2-7.9-9-9.8-.7-2-1-6 1.8-8.9zm10.7-9.5c1-1.5 2.7-3 4.5-3.3 2.8-.5 5.9-.1 7.9 2 1.4 1.6 5.5 11.7 6 13.8.7 3.1.1 6.5-1.6 7.9-2.4 2-6.6 2.2-8.7.8-1.2-.8-7.8-10.6-8.6-13.1-.8-2.4-.7-6.1.5-8.1zm19.1-6.8c2-1.1 4.6-.7 6.1 0 2.7 1.3 5 5.2 5.4 7.5.7 4.3.2 10.1 0 11.2s-1.1 3.6-2.9 4.6-5.2 1.3-6.3 0c-1.7-1.9-1-4.2-2.2-7.7-1.2-3.5-4-7.9-4-9.8-.2-2.5 1.9-4.7 3.9-5.8zm15.3-1.5c.6-3.6 4.4-5.9 9.1-5.9 4.5 0 8.7 3.6 10.6 6 1.8 2.4 4.2 7.9 4 13.1-.2 4.7-1.7 9.8-3.8 11.6-2.2 1.8-4.8 2.7-9.2 2.7-4.3 0-8.3-4.1-9.1-6.9-.8-2.9-.1-6.5-.1-9.4 0-4.3-2.1-7.5-1.5-11.2zm-40.8 53.7c3.5-4.5 10-11.6 17.8-16.7 5.6-3.7 13-7.5 21.3-7.5 2.8 0 6.2 2.1 10.1 2.6 5.3.8 11.1-.1 13.4 1.3 4.5 2.6 7.8 8.3 8 15.3.2 8.4-4.1 21.1-3.1 33.7 1.4 17.8 17.3 33.8 17.4 46.5.1 8.5-5.2 14.8-12.1 18.3-10.1 5.2-19.6 1.4-27.2-5.7-8-7.4-11.8-16.6-16-26.2-3.6-8-11.9-17.3-18.5-24.5-7.4-8.1-11.6-21.8-12-25.7-.7-4.5-1.7-7.9.9-11.4zM125.9 66.2c3.3-.9 8.1-.6 10.2 2.2 1.4 2 .6 4.1.9 5.9.6 4.1 4.9 9.5 5 14.6 0 2.4-1.1 6.3-3.6 8.1-2.4 1.8-8.2 2.7-11.3 1.7-6.3-2-8.8-9.8-9.3-14.8-.3-3.2-.6-6.9.9-10.6 1.4-3.1 3.1-6 7.2-7.1zm23.5-.1c2.2-.4 6.4.6 7.3 3.7.7 2.5.1 4 0 7.3-.2 3.9 2 7.9 1.2 10-.9 2.1-3 2.9-5 2.9-3.3 0-4.3-1-6.1-3.4-1.9-2.6-3.2-7-3.7-9.8-.5-2.6-.2-5 .9-6.8 1.3-2 2.6-3.5 5.4-3.9zm17-1.2c3 0 5 1.4 6.3 3.6 1.1 1.9 1.5 4.8 1.5 6.5 0 1.6-.8 9-2 11.5-1.2 2.7-4.2 4.3-6.6 4.3-2.4 0-4.5-1.7-5.3-3.4-.9-1.7-1.2-5.7-1.6-7.5-.5-1.9-.6-6.2.1-8.8.7-2.8 3.5-6.2 7.6-6.2zm19.2 7.4c3 1.4 4.2 4.6 3.9 7.8-.4 3.7-1.8 4.1-3 6.5-1.3 2.5-2 7.2-5.1 7.2-2.4 0-7.1-2.1-7.2-4.6 0-1.9.7-6 1-7.4.5-2.1.2-5.3 1-6.7 1.4-2.3 5.9-4.4 9.4-2.8zm10.1 9.1c2 1 5.2 5.3 5.2 9.4 0 3.6-1.7 5.5-3.5 6.9s-4 2.5-6.5 2.2c-2.7-.4-5-3.8-5-5.8 0-2.7.9-4 2.1-6.2 1.1-2 1-2.6 2.4-5.1 1-1.7 3.4-2.3 5.3-1.4zm-48.4 15.3c3.2-1.2 8-1.7 12.7-1.2s13.1 1.7 20.7 5.7c2.4 1.3 3.8 3 6 4.3 3 1.7 6.5 1.5 8.5 5.1 3.2 6 4.1 12.3 3.6 19.5-1.4 18.1-10.3 28.8-13 46.9-1.6 10.6 0 21.3-8.7 32.6-3.4 4.4-7.8 9.4-17.8 9.4-11.2 0-18-7.4-19.8-14.5-2.5-10.3 2.1-24.8 2.3-33.8.2-8.8-4-19-6.9-26.7-2.4-6.6-7.4-11.1-9.2-17-1.8-5.9-2.5-14.3.7-18.1 2.9-3.4 7.9-4.7 12.2-5.9 5-1.6 5.3-5 8.7-6.3z"/></g></svg>