<svg version="1.1" id="Layer_1" xmlns="http://www.w3.org/2000/svg" x="0" y="0" viewBox="0 0 204.1 204.1" style="enable-background:new 0 0 204.1 204.1" xml:space="preserve"><style>.st0{fill:#ec2326}.st1{fill:#fff}</style><path class="st0" d="M187 70.5c1.1-.5 2.2-1.2 3.3-2.1 1.4-1.1 5.7-4.6 5.7-11.6 0-6.2-4.4-12.6-8.5-14.7-1.1-.6-2.3-.9-3.5-1-1-3.6-3.4-6.5-6.8-8.1-1.6-.8-3.4-1.2-5.3-1.2-1.5 0-3 .3-4.5.7-.2-.4-.4-.7-.6-1.1-2.5-4.2-6.6-6.5-11.5-6.5-3.4 0-6.3 1.3-8.6 3.1-2.2-1.4-4.9-2-7.4-2-.7 0-1.3.1-2 .2-3.7.6-6.1 2.4-7.8 4.4-2.4-3.1-6.4-4.8-11.2-4.8-1.7 0-3.5.2-5.1.7-6.7 1.8-9.5 6.6-11.1 10.6-2.2 5.2-1.7 10.2-1.4 13.5.7 6.8 4 15.5 11.2 19-.5.4-.9.9-1.3 1.4-6.3 7.6-2.7 21.1-1.9 23.7 1.2 3.8 3.2 6.9 5.2 9.9 1.6 2.5 3.2 4.8 4.1 7.4.3.9.6 1.7 1 2.6 2.5 6.8 5.6 15.2 5.5 21.9-.1 2.8-.6 6.5-1.3 10.4-1.3 8-2.7 17.1-.8 24.9 2.3 9.5 11.2 19.1 25.6 19.1 13.5 0 19.6-7.9 22.5-11.8 7.7-10 8.5-19.7 9.2-28.2.2-2.5.4-4.8.7-7.1 1.2-7.7 3.5-14 6.1-20.6 3-7.9 6.1-16.1 6.9-26.7.7-8.9-.7-16.2-4.3-22.8-.4-1.3-1.2-2.4-2.1-3.2z"/><path class="st0" d="M110.9 131.2c-4.1-7.8-8.4-15.8-9.1-23.9-.5-6.6.6-13.6 1.7-19.8.8-4.9 1.6-9.5 1.5-13.6-.2-8.8-4.4-16.6-10.9-20.3 4.1-4.7 4.7-13 4.8-14.8.3-6.6-2.5-13.4-5.2-17-3-3.9-8.7-8.4-15.3-8.4h-.1c-6.9 0-12.4 3.4-14.4 8.7-.4-.3-.9-.5-1.3-.7-1.7-.8-3.8-1.3-5.8-1.3-2.1 0-4.2.5-5.9 1.5-1.4.8-2.9 2-4.1 3.4-1.6-.6-3.4-.9-5.3-.9-1 0-2.1.1-3.2.3-3.8.7-6.9 3.5-8.5 6-1 1.6-1.6 3.5-1.9 5.4-3.3 0-6.3 1.2-8.2 3.2-2.7 2.9-3.9 6.4-3.9 9.7-.6.2-1.2.5-1.8.8-5.2 3.1-5.6 10.2-5.6 12.3 0 5.3 2.5 10.6 6.4 13.6 1.9 1.5 4.4 2.4 7.2 2.6-2 4-1.4 8-1 11.3l.3 2.1c.5 4.7 5.1 19.9 13.5 29.1 5.6 6.2 14.2 15.5 17.4 22.9l.8 1.7c4.1 9.2 8.2 18.6 16.7 26.4 6.8 6.3 14.4 9.6 21.8 9.6 4.2 0 8.3-1 12.2-3.1 9.9-5.1 15.5-13.7 15.4-23.7.1-7.6-3.9-15.1-8.2-23.1z"/><path class="st1" d="M115 32.2c3.3-.9 8.1-.6 10.2 2.2 1.4 2 .6 4.1.9 5.9.6 4.1 4.9 9.5 5 14.6 0 2.4-1.1 6.3-3.6 8.1-2.4 1.8-8.2 2.7-11.3 1.7-6.3-2-8.8-9.8-9.3-14.8-.3-3.2-.6-6.9.9-10.6 1.3-3.1 3.1-6 7.2-7.1zM138.5 32.1c2.2-.4 6.4.6 7.3 3.7.7 2.5.1 4 0 7.3-.2 3.9 2 7.9 1.2 10-.9 2.1-3 2.9-5 2.9-3.3 0-4.3-1-6.1-3.4-1.9-2.6-3.2-7-3.7-9.8-.5-2.6-.2-5 .9-6.8 1.3-2 2.6-3.5 5.4-3.9zM155.4 30.9c3 0 5 1.4 6.3 3.6 1.1 1.9 1.5 4.8 1.5 6.5s-.8 9-2 11.5c-1.2 2.7-4.2 4.3-6.6 4.3-2.4 0-4.5-1.7-5.3-3.4-.9-1.7-1.2-5.7-1.6-7.5-.5-1.9-.6-6.2.1-8.8.7-2.8 3.5-6.2 7.6-6.2zM174.7 38.3c3 1.4 4.2 4.6 3.9 7.8-.4 3.7-1.8 4.1-3 6.5-1.3 2.5-2 7.2-5.1 7.2-2.4 0-7.1-2.1-7.2-4.6 0-1.9.7-6 1-7.4.5-2.1.2-5.3 1-6.7 1.3-2.3 5.8-4.5 9.4-2.8zM184.8 47.4c2 1 5.2 5.3 5.2 9.4 0 3.6-1.7 5.5-3.5 6.9-1.7 1.4-4 2.5-6.5 2.2-2.7-.4-5-3.8-5-5.8 0-2.7.9-4 2.1-6.2 1.1-2 1-2.6 2.4-5.1.9-1.7 3.4-2.3 5.3-1.4zM136.4 62.7c3.2-1.2 8-1.7 12.7-1.2 4.7.5 13.1 1.7 20.7 5.7 2.4 1.3 3.8 3 6 4.3 3 1.7 6.5 1.5 8.5 5.1 3.2 6 4.1 12.3 3.6 19.5-1.4 18.1-10.3 28.8-13 46.9-1.6 10.6 0 21.3-8.7 32.6-3.4 4.4-7.8 9.4-17.8 9.4-11.2 0-18-7.4-19.8-14.5-2.5-10.3 2.1-24.8 2.3-33.8.2-8.8-4-19-6.9-26.7-2.4-6.6-7.4-11.1-9.2-17-1.8-5.9-2.5-14.3.7-18.1 2.9-3.4 7.9-4.7 12.2-5.9 4.9-1.6 5.3-5.1 8.7-6.3z"/><g><path class="st1" d="M17.2 54.7c1.9-1.1 4.2-.5 6.1.8 1.9 1.3 5.2 5 6 6.7 1.3 2.7 1.6 6.8-.7 8.5s-7.5 1.8-10-.1-4.1-5.6-4.1-8.8c0-2.7.8-6 2.7-7.1zM24.2 43.2c1.9-2 6.7-1.5 8.4 0 1.7 1.5 4.9 6.3 6.1 8.2 2.2 3.4 2.1 6.7 0 8.8-2.1 2.1-4.5 2.9-7.3 1.7-1.8-.8-8.2-7.9-9-9.8s-1-6 1.8-8.9zM34.9 33.7c1-1.5 2.7-3 4.5-3.3 2.8-.5 5.9-.1 7.9 2 1.4 1.6 5.5 11.7 6 13.8.7 3.1.1 6.5-1.6 7.9-2.4 2-6.6 2.2-8.7.8-1.2-.8-7.8-10.6-8.6-13.1-.8-2.4-.8-6.1.5-8.1zM53.9 26.9c2-1.1 4.6-.7 6.1 0 2.7 1.3 5 5.2 5.4 7.5.7 4.3.2 10.1 0 11.2-.2 1.1-1.1 3.6-2.9 4.6-1.8 1-5.2 1.3-6.3 0-1.7-1.9-1-4.2-2.2-7.7-1.2-3.5-4-7.9-4-9.8-.1-2.5 2-4.7 3.9-5.8zM69.3 25.4c.6-3.6 4.4-5.9 9.1-5.9 4.5 0 8.7 3.6 10.6 6s4.2 7.9 4 13.1c-.2 4.7-1.7 9.8-3.8 11.6-2.2 1.8-4.8 2.7-9.2 2.7-4.3 0-8.3-4.1-9.1-6.9-.8-2.9-.1-6.5-.1-9.4 0-4.3-2.2-7.5-1.5-11.2zM28.5 79.1c3.5-4.5 10-11.6 17.8-16.7 5.6-3.7 13-7.5 21.3-7.5 2.8 0 6.2 2.1 10.1 2.6 5.3.8 11.1-.1 13.4 1.3 4.5 2.6 7.8 8.3 8 15.3.2 8.4-4.1 21.1-3.1 33.7 1.4 17.8 17.3 33.8 17.4 46.5.1 8.5-5.2 14.8-12.1 18.3-10.3 5.3-19.8 1.4-27.4-5.6-8-7.4-11.8-16.6-16-26.2-3.6-8-11.9-17.3-18.5-24.5-7.4-8.1-11.6-21.8-12-25.7-.5-4.6-1.6-8 1.1-11.5z"/></g></svg>