<?xml version="1.0" standalone="no"?>
<!DOCTYPE svg PUBLIC "-//W3C//DTD SVG 20010904//EN"
 "http://www.w3.org/TR/2001/REC-SVG-20010904/DTD/svg10.dtd">
<svg version="1.0" xmlns="http://www.w3.org/2000/svg"
 width="512.000000pt" height="512.000000pt" viewBox="0 0 512.000000 512.000000"
 preserveAspectRatio="xMidYMid meet">
<metadata>
Created by potrace 1.14, written by Peter Selinger 2001-2017
</metadata>
<g transform="translate(0.000000,512.000000) scale(0.100000,-0.100000)"
fill="#000000" stroke="none">
<path d="M1872 4780 c-106 -22 -202 -87 -249 -167 -17 -30 -29 -41 -37 -34
-19 16 -118 41 -161 41 -68 0 -141 -28 -200 -76 l-55 -44 -46 11 c-60 15 -171
6 -228 -20 -24 -10 -65 -38 -90 -61 -45 -41 -106 -146 -106 -181 0 -13 -10
-20 -37 -24 -141 -24 -224 -104 -261 -253 -16 -66 -20 -72 -67 -104 -39 -26
-57 -48 -85 -102 -34 -68 -35 -71 -35 -190 0 -115 2 -124 32 -188 36 -76 110
-161 164 -188 20 -11 57 -24 83 -31 31 -8 45 -16 42 -24 -45 -118 -19 -350 65
-577 45 -124 124 -279 184 -363 30 -41 107 -134 172 -207 228 -256 292 -351
402 -593 130 -285 226 -431 379 -576 153 -146 306 -225 481 -249 297 -41 636
171 738 460 35 101 42 237 18 346 -24 109 -63 200 -208 484 -232 453 -249 559
-165 1065 53 326 43 473 -45 639 -31 59 -120 158 -166 187 l-24 15 26 40 c77
116 110 347 72 510 -21 91 -83 217 -135 277 -53 60 -150 129 -219 156 -61 24
-176 34 -239 21z m214 -185 c191 -93 284 -341 219 -590 -25 -95 -56 -139 -121
-171 -65 -32 -179 -44 -237 -25 -56 19 -113 66 -144 118 -27 47 -28 51 -25
182 2 107 -2 151 -19 223 -24 102 -22 166 8 206 67 89 202 113 319 57z m-604
-147 c50 -15 121 -92 142 -155 24 -70 22 -304 -3 -358 -23 -51 -46 -70 -97
-84 -53 -14 -101 -4 -120 24 -8 13 -19 50 -24 83 -12 72 -25 108 -79 228 -22
51 -41 104 -41 118 0 35 21 74 57 108 49 47 95 57 165 36z m-377 -99 c57 -16
96 -62 144 -172 76 -175 94 -235 88 -301 -6 -68 -27 -103 -78 -128 -43 -23
-146 -24 -176 -3 -21 14 -136 179 -186 265 -114 196 8 394 208 339z m-280
-329 c55 -53 163 -219 175 -270 15 -61 -3 -113 -53 -154 -33 -26 -47 -31 -95
-31 -48 0 -63 5 -95 29 -45 34 -161 167 -185 211 -23 44 -21 131 6 182 33 64
55 75 139 71 67 -3 75 -6 108 -38z m-248 -291 c47 -29 132 -126 155 -177 27
-59 27 -145 1 -180 -27 -36 -85 -54 -159 -50 -84 5 -133 38 -171 115 -24 50
-28 70 -28 143 0 94 19 144 66 168 31 16 93 8 136 -19z m1235 -18 c118 -38
132 -40 310 -50 142 -8 147 -9 188 -39 100 -74 158 -194 167 -347 5 -88 -1
-138 -52 -460 -9 -55 -18 -163 -22 -240 -10 -260 23 -373 232 -790 83 -165
161 -331 174 -369 60 -187 27 -353 -97 -488 -132 -142 -317 -214 -485 -188
-258 40 -495 262 -667 625 -187 393 -218 442 -450 706 -177 201 -212 249 -279
380 -103 202 -158 412 -149 568 4 84 22 111 167 263 236 247 481 399 716 443
106 20 146 18 247 -14z"/>
<path d="M3794 4483 c-27 -10 -65 -28 -83 -39 l-33 -21 -41 20 c-25 12 -71 22
-114 25 -90 6 -158 -14 -229 -68 l-52 -39 -23 26 c-63 67 -206 104 -325 84
-180 -30 -302 -148 -359 -346 -35 -120 -17 -347 39 -484 45 -110 133 -221 203
-253 22 -11 22 -11 -12 -55 -66 -86 -79 -139 -79 -308 1 -224 29 -316 165
-526 106 -166 222 -472 256 -680 15 -93 15 -109 0 -232 -10 -73 -27 -190 -38
-262 -28 -171 -31 -411 -6 -505 32 -119 82 -207 171 -296 132 -132 283 -193
479 -194 252 0 443 110 602 350 128 191 166 324 200 686 23 254 41 326 171
677 136 367 182 587 171 817 -9 165 -63 353 -133 456 -14 20 -24 37 -22 38 2
2 19 12 38 24 56 34 117 103 147 167 24 52 28 72 27 150 0 104 -23 170 -88
257 -52 71 -98 108 -157 128 -43 15 -53 23 -75 68 -63 126 -206 199 -339 173
-46 -9 -51 -8 -65 12 -37 55 -96 109 -145 132 -72 36 -180 43 -251 18z m209
-176 c75 -57 98 -161 73 -332 -19 -131 -34 -176 -74 -219 -54 -57 -128 -71
-192 -35 -52 29 -69 64 -91 186 -34 189 -23 291 39 364 47 54 83 70 154 66 42
-2 65 -10 91 -30z m-919 -12 c54 -26 68 -55 76 -148 6 -70 15 -100 61 -202 52
-115 54 -124 54 -205 0 -72 -4 -92 -25 -130 -41 -72 -103 -104 -226 -117 -166
-16 -288 105 -330 328 -48 250 33 446 201 490 46 12 147 4 189 -16z m504 -5
c62 -28 76 -67 68 -191 -5 -78 -3 -113 14 -192 19 -83 20 -100 8 -124 -26 -55
-120 -79 -191 -49 -79 33 -167 223 -169 366 -3 162 128 254 270 190z m779
-131 c69 -26 107 -88 106 -176 0 -55 -5 -71 -41 -130 -23 -38 -51 -94 -63
-125 -28 -74 -57 -102 -106 -100 -47 2 -121 39 -147 74 -19 26 -19 32 -7 120
8 51 19 133 25 182 11 82 15 91 45 116 53 45 130 61 188 39z m301 -262 c81
-77 113 -207 73 -291 -36 -73 -130 -136 -204 -136 -77 0 -154 96 -141 174 3
22 32 91 63 154 45 92 62 118 86 128 42 19 83 9 123 -29z m-753 -352 c199 -40
303 -82 423 -171 40 -31 106 -67 149 -84 94 -36 112 -53 151 -138 45 -97 62
-173 69 -298 11 -218 -27 -402 -161 -761 -124 -336 -162 -483 -181 -713 -27
-331 -62 -457 -169 -618 -128 -192 -265 -272 -466 -274 -161 -1 -289 50 -384
153 -143 154 -163 314 -95 749 38 237 42 388 15 510 -20 90 -111 363 -158 475
-19 44 -67 131 -107 193 -87 136 -113 192 -136 294 -25 112 -18 276 13 340 34
68 114 119 259 164 110 34 118 39 188 104 74 68 118 88 230 104 64 9 243 -5
360 -29z"/>
</g>
</svg>
